<svg width="53" height="53" viewBox="0 0 53 53" fill="none" xmlns="http://www.w3.org/2000/svg">
<path d="M23.9801 0.841557L1.79554 13.6262C0.687691 14.2396 0 15.4061 0 16.6727V37.5418C0 38.8084 0.687691 39.975 1.79554 40.5884L10.3646 45.2442C10.9447 45.5598 11.6509 45.1396 11.6509 44.4794V29.5066C11.6509 28.8431 12.3632 28.4233 12.9438 28.745L19.9495 32.625C20.6417 33.0086 21.0713 33.7378 21.0713 34.5293V50.0256C21.0713 50.6641 21.4209 51.2512 21.9818 51.5561L23.5841 52.4264C24.6337 53.0078 25.9077 53.0086 26.9577 52.4272C28.4521 51.5992 30.6148 50.4019 32.0546 49.6042C32.3447 49.4434 32.6988 49.6543 32.6988 49.9862V51.4412C32.6988 52.2352 33.675 52.6147 34.2117 52.0292L38.7678 47.0574C38.9705 46.8363 39.2725 46.7349 39.5679 46.7895L42.7183 47.3705C43.2538 47.4698 43.7474 47.0586 43.7474 46.5146V43.6432C43.7474 43.3256 43.9214 43.0318 44.1992 42.8783C53.2782 37.8495 47.4078 41.0233 51.2004 38.9229C52.3094 38.3083 53 37.1397 53 35.8714V34.2991C53 33.6335 52.2852 33.2134 51.703 33.5359C50.4556 34.2269 50.5139 34.2055 50.5767 34.1842C50.6809 34.1493 50.7983 34.1144 45.0419 37.3026C44.4618 37.6243 43.7474 37.2057 43.7474 36.5423V36.045C43.7474 35.7286 43.9193 35.4369 44.1963 35.283L52.5511 30.5787C52.8281 30.4249 53 30.1331 53 29.8168C53 29.1529 52.2877 28.7331 51.7071 29.0548L45.0403 32.8248C44.4601 33.1465 43.7474 32.7267 43.7474 32.0633V31.797C43.7474 31.4802 43.9193 31.1885 44.1963 31.0354L52.5511 26.3303C52.8281 26.1765 53 25.8847 53 25.5684C53 24.9049 52.2877 24.4856 51.7071 24.8068L45.0403 28.5772C44.4601 28.8985 43.7474 28.4787 43.7474 27.8153V27.5494C43.7474 27.2326 43.9193 26.9409 44.1963 26.787L52.5511 22.0823C52.8281 21.9293 53 21.6376 53 21.3208C53 20.6573 52.2877 20.2376 51.7071 20.5588L26.5642 34.5621C25.9836 34.8838 25.2713 34.4636 25.2713 33.8001V33.5338C25.2713 33.2175 25.4428 32.9257 25.7202 32.7723L52.1051 18.099C52.6574 17.7917 53 17.2094 53 16.5771V15.3019C53 14.0422 52.3197 12.881 51.2213 12.2647L30.5102 0.8592C29.4918 0.2864 28.361 -7.62939e-06 27.2293 -7.62939e-06C26.1104 -7.62939e-06 24.9911 0.280247 23.9801 0.841557ZM2.59196 27.0558V24.1749C2.59196 23.843 2.94812 23.6329 3.2378 23.7938L4.62097 24.5594L4.60948 28.0926L2.59196 27.0558ZM6.78292 29.2087L6.79359 25.7616L8.23092 26.5568C8.57723 26.7489 8.79224 27.1132 8.79224 27.5092V30.2415L6.78292 29.2087ZM3.2657 33.4009C2.84964 33.1711 2.59196 32.7333 2.59196 32.2582V29.5033L4.60168 30.5357L4.58979 34.1337L3.2657 33.4009ZM7.82348 35.9231L6.76281 35.3359L6.77513 31.6521L8.79224 32.6886V35.3519C8.79224 35.7323 8.48039 36.0056 8.13901 36.0056C8.03356 36.0056 7.92565 35.9797 7.82348 35.9231ZM25.2713 38.0481V37.7822C25.2713 37.4655 25.4428 37.1737 25.7202 37.0203L31.4059 33.8715C31.9865 33.5498 32.6988 33.9696 32.6988 34.6335V34.8994C32.6988 35.2157 32.5265 35.5074 32.2495 35.6609L26.5642 38.8097C26.4276 38.8856 26.2836 38.92 26.1432 38.92C25.6878 38.9204 25.2713 38.5553 25.2713 38.0481ZM25.2713 42.2961V42.0298C25.2713 41.7131 25.4428 41.4213 25.7202 41.2683L31.4059 38.1191C31.9865 37.7978 32.6988 38.2176 32.6988 38.8806V39.1469C32.6988 39.4637 32.5265 39.7554 32.2495 39.9089L26.5642 43.0581C26.4276 43.1336 26.2836 43.1684 26.1432 43.1684C25.6878 43.1684 25.2713 42.8037 25.2713 42.2961ZM25.2713 46.7751V46.2778C25.2713 45.9615 25.4428 45.6697 25.7202 45.5163L31.4059 42.3671C31.9865 42.0458 32.6988 42.466 32.6988 43.1291V43.6255C32.6988 43.9427 32.5286 44.2332 32.2516 44.3867C30.692 45.25 28.1107 46.6799 26.5618 47.5379C26.4255 47.6134 26.2819 47.6479 26.142 47.6479C25.687 47.6479 25.2713 47.2823 25.2713 46.7751Z" fill="url(#paint0_linear_10_326)"/>
<defs>
<linearGradient id="paint0_linear_10_326" x1="71.2234" y1="79.5342" x2="-23.8087" y2="17.782" gradientUnits="userSpaceOnUse">
<stop stop-color="#2C2C2C"/>
<stop offset="0.101751" stop-color="#2C2C2C"/>
<stop offset="0.344301" stop-color="#2C2C2C"/>
<stop offset="1"/>
</linearGradient>
</defs>
</svg>
